<?xml version="1.0" encoding="UTF-8" standalone="no"?>
<svg width="26px" height="44px" viewBox="0 0 26 44" version="1.1" xmlns="http://www.w3.org/2000/svg" xmlns:xlink="http://www.w3.org/1999/xlink">
    <!-- Generator: Sketch 42 (36781) - http://www.bohemiancoding.com/sketch -->
    <title>guests</title>
    <desc>Created with Sketch.</desc>
    <defs></defs>
    <g id="Page-1" stroke="none" stroke-width="1" fill="none" fill-rule="evenodd">
        <g id="Listing-Default" transform="translate(-301.000000, -705.000000)" stroke="#464646">
            <g id="about" transform="translate(247.000000, 680.000000)">
                <g id="main-icons" transform="translate(22.000000, 24.000000)">
                    <g id="guests" transform="translate(32.000000, 0.000000)">
                        <path d="M7.7279,42.0623 L7.7279,42.4933 C7.7279,43.0493 7.2769,43.5003 6.7199,43.5003 C6.1649,43.5003 5.7139,43.0493 5.7139,42.4933 L5.7139,42.0543" id="Stroke-1"></path>
                        <path d="M20.2869,42.0623 L20.2869,42.4933 C20.2869,43.0493 19.8359,43.5003 19.2799,43.5003 C18.7239,43.5003 18.2729,43.0493 18.2729,42.4933 L18.2729,42.0543" id="Stroke-3"></path>
                        <path d="M25.5,40.4513 C25.5,41.5543 24.583,42.4493 23.451,42.4493 L2.548,42.4493 C1.418,42.4493 0.5,41.5553 0.5,40.4513 L0.5,9.4473 C0.5,8.3443 1.418,7.4493 2.548,7.4493 L23.451,7.4493 C24.582,7.4493 25.5,8.3443 25.5,9.4473 L25.5,14.4513 L25.5,40.4513 Z" id="Stroke-11"></path>
                        <path d="M22.5,37.4513 C22.5,38.5543 21.583,39.4493 20.451,39.4493 L5.548,39.4493 C4.418,39.4493 3.5,38.5553 3.5,37.4513 L3.5,24.4473 C3.5,23.3443 4.418,22.4493 5.548,22.4493 L20.451,22.4493 C21.582,22.4493 22.5,23.3443 22.5,24.4473 L22.5,29.4513 L22.5,37.4513 Z" id="Stroke-11"></path>
                        <path d="M22.5,17.4513 C22.5,18.5543 21.583,19.4493 20.451,19.4493 L5.548,19.4493 C4.418,19.4493 3.5,18.5553 3.5,17.4513 L3.5,12.4473 C3.5,11.3443 4.418,10.4493 5.548,10.4493 L20.451,10.4493 C21.582,10.4493 22.5,11.3443 22.5,12.4473 L22.5,17.4513 L22.5,17.4513 Z" id="Stroke-11"></path>
                        <path d="M6.3386,25.4495 L19.5866,25.4495" id="Stroke-13"></path>
                        <path d="M6.3386,13.4495 L19.5866,13.4495" id="Stroke-13"></path>
                        <path d="M16.6101,7.3005 L16.6101,1.6035" id="Stroke-17"></path>
                        <path d="M9.6101,7.3005 L9.6101,1.6035" id="Stroke-17"></path>
                        <path d="M8.5,1.5 L17.5,1.5" id="Line" stroke-linecap="square"></path>
                    </g>
                </g>
            </g>
        </g>
    </g>
</svg>