<?xml version="1.0" encoding="UTF-8" standalone="no"?>
<svg width="26px" height="41px" viewBox="0 0 26 41" version="1.1" xmlns="http://www.w3.org/2000/svg" xmlns:xlink="http://www.w3.org/1999/xlink">
    <!-- Generator: Sketch 42 (36781) - http://www.bohemiancoding.com/sketch -->
    <title>bedrooms</title>
    <desc>Created with Sketch.</desc>
    <defs></defs>
    <g id="Page-1" stroke="none" stroke-width="1" fill="none" fill-rule="evenodd" stroke-linecap="round" stroke-linejoin="round">
        <g id="Listing-Default" transform="translate(-391.000000, -707.000000)" stroke="#464646">
            <g id="about" transform="translate(247.000000, 680.000000)">
                <g id="main-icons" transform="translate(22.000000, 24.000000)">
                    <g id="bedrooms" transform="translate(122.000000, 3.000000)">
                        <polygon id="Stroke-1" points="25.5 40.5 0.5 40.5 0.5 0.5 25.5 0.5"></polygon>
                        <polyline id="Stroke-3" points="3.5 40.5 3.5 3.5 22.5 3.5 22.5 40.5"></polyline>
                        <path d="M0.7603,0.9338 L3.7153,3.8888" id="Stroke-4"></path>
                        <path d="M25.2397,0.9338 L22.2847,3.8888" id="Stroke-5"></path>
                        <path d="M19.4707,21.4289 C19.4707,21.9739 19.0307,22.4139 18.4867,22.4139 C17.9427,22.4139 17.5017,21.9739 17.5017,21.4289 C17.5017,20.8859 17.9427,20.4449 18.4867,20.4449 C19.0307,20.4449 19.4707,20.8859 19.4707,21.4289 L19.4707,21.4289 Z" id="Stroke-6"></path>
                        <path d="M17,21.5 L13,21.5" id="Stroke-7"></path>
                    </g>
                </g>
            </g>
        </g>
    </g>
</svg>