<?xml version="1.0" encoding="UTF-8" standalone="no"?>
<svg width="52px" height="38px" viewBox="0 0 52 38" version="1.1" xmlns="http://www.w3.org/2000/svg" xmlns:xlink="http://www.w3.org/1999/xlink">
    <!-- Generator: Sketch 42 (36781) - http://www.bohemiancoding.com/sketch -->
    <title>beds</title>
    <desc>Created with Sketch.</desc>
    <defs></defs>
    <g id="Page-1" stroke="none" stroke-width="1" fill="none" fill-rule="evenodd" stroke-linecap="round" stroke-linejoin="round">
        <g id="Listing-Default" transform="translate(-468.000000, -710.000000)" stroke="#464646">
            <g id="about" transform="translate(247.000000, 680.000000)">
                <g id="main-icons" transform="translate(22.000000, 24.000000)">
                    <g id="beds" transform="translate(199.000000, 6.000000)">
                        <path d="M3.7132,14.6936 L2.5002,21.2346" id="Stroke-1"></path>
                        <path d="M43,14.5 L48,14.5" id="Stroke-2"></path>
                        <path d="M9,14.5 L4,14.5" id="Stroke-3"></path>
                        <path id="Stroke-4"></path>
                        <polygon id="Stroke-5" points="51.5 23.5 0.5 23.5 0.5 21.5 51.5 21.5"></polygon>
                        <polyline id="Stroke-7" points="1.5 24 1.5 33.09 1.5 37.5 4.5 37.5 4.5 33.5 48.5 33.5 48.5 37.5 50.5 37.5 50.5 33.09 50.5 24"></polyline>
                        <path d="M48.5,14 L48.5,3" id="Stroke-9"></path>
                        <path d="M3.5,3 L3.5,14" id="Stroke-10"></path>
                        <path d="M5.5,3 L5.5,14" id="Stroke-11"></path>
                        <path d="M46.5,3 L46.5,14" id="Stroke-12"></path>
                        <polygon id="Stroke-13" points="49.5 2.5 2.5 2.5 2.5 0.5 49.5 0.5"></polygon>
                        <path d="M42.5161,15.3308 C42.5811,15.9268 42.1131,16.4978 41.4691,16.5838 C36.9191,17.0948 32.2871,17.0948 27.7381,16.5838 C27.0941,16.4998 26.6261,15.9268 26.6911,15.3308 C26.9541,12.8298 27.2161,10.3278 27.4791,7.8298 C27.5441,7.2318 28.0491,6.5828 28.6091,6.4048 C32.5861,5.1308 36.6211,5.1308 40.5981,6.4048 C41.1591,6.5848 41.6641,7.2328 41.7291,7.8298 C41.9911,10.3308 42.2541,12.8308 42.5161,15.3308 L42.5161,15.3308 Z" id="Stroke-15"></path>
                        <path d="M25.3088,15.3308 C25.3738,15.9268 24.9058,16.4978 24.2618,16.5838 C19.7118,17.0948 15.0808,17.0948 10.5308,16.5838 C9.8878,16.4998 9.4188,15.9268 9.4838,15.3308 C9.7468,12.8298 10.0088,10.3278 10.2718,7.8298 C10.3368,7.2318 10.8418,6.5828 11.4018,6.4048 C15.3788,5.1308 19.4138,5.1308 23.3908,6.4048 C23.9508,6.5818 24.4568,7.2328 24.5218,7.8298 C24.7838,10.3308 25.0458,12.8308 25.3088,15.3308 L25.3088,15.3308 Z" id="Stroke-16"></path>
                        <path d="M48.2868,14.6936 L49.4998,21.2346" id="Stroke-17"></path>
                    </g>
                </g>
            </g>
        </g>
    </g>
</svg>